HIERARCHY
ROOT Hips
{
    OFFSET 0.000000 0.000000 0.000000
    CHANNELS 6 Xposition Yposition Zposition Zrotation Xrotation Yrotation
        JOINT Chest
        {
            OFFSET -0.000000 31.986500 -0.000000
            CHANNELS 3 Zrotation Xrotation Yrotation
            JOINT Neck
            {
                OFFSET -0.000000 24.131615 0.000000
                CHANNELS 3 Zrotation Xrotation Yrotation
                JOINT Head
                {
                    OFFSET -0.000000 10.450000 0.000000
                    CHANNELS 3 Zrotation Xrotation Yrotation
                    End Site
                    {
                        OFFSET -0.000000 16.150003 0.000000
                    }
                }
            }
            JOINT LeftCollar
            {
                OFFSET -0.000000 24.131615 0.000000
                CHANNELS 3 Zrotation Xrotation Yrotation
                JOINT LeftShoulder
                {
                    OFFSET 20.000000 -0.000000 0.000000
                    CHANNELS 3 Zrotation Xrotation Yrotation
                    JOINT LeftElbow
                    {
                        OFFSET 22.686384 0.000000 0.000000
                        CHANNELS 3 Zrotation Xrotation Yrotation
                        JOINT LeftWrist
                        {
                            OFFSET 24.813133 0.000000 0.000000
                            CHANNELS 3 Zrotation Xrotation Yrotation
                            End Site
                            {
                                OFFSET 0.000000 -14.250000 0.000000
                            }
                        }
                    }
                }
            }
            JOINT RightCollar
            {
                OFFSET -0.000000 24.131615 0.000000
                CHANNELS 3 Zrotation Xrotation Yrotation
                JOINT RightShoulder
                {
                    OFFSET -20.000000 0.000000 0.000000
                    CHANNELS 3 Zrotation Xrotation Yrotation
                    JOINT RightElbow
                    {
                        OFFSET -22.686384 0.000000 0.000000
                        CHANNELS 3 Zrotation Xrotation Yrotation
                        JOINT RightWrist
                        {
                            OFFSET -24.813133 0.000000 0.000000
                            CHANNELS 3 Zrotation Xrotation Yrotation
                            End Site
                            {
                                OFFSET -0.000000 -14.250000 0.000000
                            }
                        }
                    }
                }
            }
        }
    JOINT LeftHip
    {
        OFFSET 11.400001 0.000000 0.000000
        CHANNELS 3 Zrotation Xrotation Yrotation
        JOINT LeftKnee
        {
            OFFSET -0.000000 -38.315727 0.000000
            CHANNELS 3 Zrotation Xrotation Yrotation
            JOINT LeftAnkle
            {
                OFFSET -0.000000 -38.060658 0.000000
                CHANNELS 3 Zrotation Xrotation Yrotation
                End Site
                {
                    OFFSET -0.000000 -4.750000 16.150003
                }
            }
        }
    }
    JOINT RightHip
    {
        OFFSET -11.400001 0.000000 0.000000
        CHANNELS 3 Zrotation Xrotation Yrotation
        JOINT RightKnee
        {
            OFFSET -0.000000 -38.315727 0.000000
            CHANNELS 3 Zrotation Xrotation Yrotation
            JOINT RightAnkle
            {
                OFFSET -0.000000 -38.060658 0.000000
                CHANNELS 3 Zrotation Xrotation Yrotation
                End Site
                {
                    OFFSET -0.000000 -4.750000 16.150003
                }
            }
        }
    }
}
MOTION
Frames:    12
Frame Time:    0.010000
-83.499481    80.051064    -74.186920    -4.407216    -8.257370    35.748257    11.327338    24.913807    -24.405922    -7.069028    8.625058    17.953503    -9.348328    -2.253218    17.249147    -17.849167    2.291017    -14.949623    -18.390999    26.753014    -59.526981    14.000017    -2.134001    -17.970167    104.589981    47.387527    52.459503    22.203075    3.302309    16.988468    22.252920    35.796314    57.409218    -8.143632    -2.624902    29.107990    -127.695107    15.593934    15.209729    6.671381    23.478987    4.672442    -9.909852    21.747826    13.335233    -9.438563    -22.569515    35.791130    16.718611    -26.655689    15.838195    -4.216767    35.809048    4.992025    4.249732    -4.818994    -4.387314    
-83.312424    79.997536    -74.237511    -4.721298    -8.465898    34.611214    11.410019    24.109724    -25.792597    -7.667551    8.469955    19.020267    -8.982347    -2.569773    18.262310    -17.203835    2.221542    -15.243863    -14.882382    25.115646    -62.437645    14.009348    -2.234846    -18.717237    106.257935    44.562138    46.167324    21.850609    3.279408    17.206320    22.249939    34.828911    58.414131    -10.402289    -3.293960    29.744755    -129.403275    20.076788    11.382730    6.204258    24.091890    5.194613    -9.634832    21.222666    13.328176    -9.336181    -22.493095    36.004940    17.391798    -26.470036    16.320692    -4.472895    35.738369    5.465205    4.320617    -4.680697    -4.231566    
-83.123146    79.946266    -74.283791    -5.042632    -8.629005    33.609909    11.609574    23.234295    -26.991812    -8.192456    8.172484    19.895710    -8.646841    -2.648891    19.119509    -16.451571    2.141057    -15.542908    -11.848617    23.332443    -65.207153    13.985100    -2.329010    -19.453571    107.859268    41.129993    39.728512    21.410645    3.239471    17.471457    22.244909    33.873257    59.444561    -12.649055    -3.963308    30.207998    -131.666931    24.244831    7.871998    5.784559    24.655062    5.750430    -9.371986    20.669046    13.062531    -9.216165    -22.444613    36.357395    18.047176    -26.312065    16.899582    -4.716375    35.696037    5.843722    4.426778    -4.595597    -4.187630    
-82.930336    79.904984    -74.323288    -5.366770    -8.750981    32.744202    11.906427    22.309824    -28.007969    -8.618229    7.768221    20.571247    -8.359425    -2.539171    19.807163    -15.646418    2.060355    -15.834291    -9.230913    21.431864    -67.872292    13.981284    -2.426286    -20.269766    109.128723    37.220215    33.400360    20.913389    3.199122    17.787273    22.239698    32.892334    60.411182    -14.889924    -4.636596    30.564224    -134.385117    27.992567    4.728094    5.413496    25.163311    6.311286    -9.122049    20.104137    12.593814    -9.077493    -22.409990    36.821583    18.666977    -26.165543    17.543053    -4.939258    35.653336    6.136384    4.560962    -4.556812    -4.237500    
-82.732605    79.880882    -74.354507    -5.686116    -8.835193    32.015221    12.275814    21.356411    -28.854099    -8.932367    7.302223    21.049774    -8.138883    -2.307046    20.319691    -14.842132    1.975832    -16.104431    -6.957448    19.450205    -70.470459    14.051850    -2.556623    -21.224609    109.926979    33.031998    27.406464    20.399868    3.169239    18.143270    22.219469    31.861492    61.244747    -17.184206    -5.339491    30.886787    -137.315231    31.219189    1.919122    5.090298    25.610342    6.841383    -8.888720    19.546722    11.990913    -8.928178    -22.379873    37.364635    19.229738    -26.018190    18.207592    -5.139862    35.586597    6.360106    4.714222    -4.555478    -4.361525    
-82.528984    79.879814    -74.376846    -5.991148    -8.883959    31.423973    12.690405    20.390509    -29.549744    -9.137794    6.819486    21.346533    -7.997069    -2.025044    20.662313    -14.076400    1.897393    -16.339046    -4.976309    17.401169    -73.023544    14.165370    -2.714676    -22.350069    110.330032    28.771843    21.861700    19.911884    3.147590    18.521420    22.167902    30.776838    61.892174    -19.604605    -6.108656    31.232035    -140.188690    33.839294    -0.667002    4.813159    25.989746    7.304923    -8.675541    19.014830    11.334112    -8.790619    -22.346972    37.940662    19.714693    -25.862450    18.846943    -5.322565    35.478737    6.537918    4.877597    -4.582153    -4.542365    
-82.319046    79.905746    -74.390594    -6.272546    -8.898632    30.969845    13.123777    19.422672    -30.118383    -9.248938    6.359809    21.485973    -7.936492    -1.759624    20.850117    -13.371131    1.827847    -16.526060    -3.244319    15.299613    -75.550339    14.286178    -2.894810    -23.638206    110.570114    24.618307    16.790813    19.477247    3.142274    18.896276    22.073027    29.630985    62.321785    -22.178778    -6.958073    31.629164    -142.782913    35.805012    -3.194840    4.580140    26.296059    7.670492    -8.484446    18.521984    10.719677    -8.702376    -22.300730    38.480572    20.105755    -25.696465    19.417044    -5.497443    35.321320    6.700533    5.042842    -4.628897    -4.768838    
-82.103050    79.960564    -74.396729    -6.522259    -8.879941    30.649376    13.552207    18.458214    -30.584093    -9.287447    5.953595    21.499258    -7.951939    -1.561672    20.906673    -12.732201    1.759704    -16.653900    -1.726495    13.170941    -78.069450    14.376299    -3.081170    -25.046953    110.950157    20.697935    12.188047    19.112019    3.150234    19.242924    21.909676    28.431520    62.528118    -24.946562    -7.909247    32.074154    -144.913666    37.142803    -5.850125    4.388169    26.525963    7.915717    -8.314202    18.076996    10.237988    -8.705682    -22.228199    38.908550    20.393320    -25.522821    19.882151    -5.676828    35.113770    6.880201    5.203073    -4.689302    -5.034780    
-81.882103    80.044189    -74.396072    -6.734917    -8.830065    30.454927    13.957231    17.499966    -30.968895    -9.276280    5.617285    21.420609    -8.030824    -1.460632    20.861313    -12.147768    1.691938    -16.712753    -0.388161    11.037942    -80.601120    14.386527    -3.254836    -26.514923    111.765625    17.074425    8.053831    18.815670    3.164710    19.542072    21.664543    27.187677    62.514915    -27.912209    -8.964334    32.535172    -146.505768    37.955578    -8.770626    4.234476    26.680134    8.035763    -8.159536    17.687983    9.932980    -8.835244    -22.122301    39.174000    20.576693    -25.344549    20.224682    -5.869195    34.861187    7.097703    5.353327    -4.758599    -5.336920    
-81.657974    80.154709    -74.389091    -6.907286    -8.753206    30.374840    14.325763    16.550079    -31.290707    -9.235744    5.355271    21.283886    -8.156714    -1.464359    20.745676    -11.599077    1.621979    -16.698887    0.823142    8.925214    -83.165009    14.319739    -3.413185    -27.963387    113.198753    13.749424    4.427633    18.571297    3.180432    19.786638    21.342964    25.903286    62.286369    -31.055479    -10.105910    32.967186    -147.611359    38.413055    -11.999855    4.115837    26.764009    8.045737    -8.011549    17.364859    9.779430    -9.110856    -21.987827    39.273338    20.662294    -25.161961    20.450497    -6.073986    34.570511    7.350483    5.491328    -4.831367    -5.670229    
-81.433105    80.288734    -74.376083    -7.038437    -8.655038    30.394194    14.649961    15.610374    -31.562366    -9.180216    5.163990    21.119160    -8.314427    -1.562446    20.589788    -11.069211    1.548619    -16.619722    1.971613    6.849699    -85.760284    14.214233    -3.559766    -29.328287    115.315620    10.702164    1.378172    18.351519    3.192762    19.980970    20.967051    24.578094    61.844879    -34.342831    -11.311451    33.329071    -148.389404    38.719547    -15.459854    4.029295    26.786375    7.975234    -7.860697    17.117842    9.702719    -9.535455    -21.837465    39.239948    20.662077    -24.973108    20.585766    -6.282669    34.249886    7.616434    5.617576    -4.902180    -6.028481    
-81.210266    80.441696    -74.357704    -7.129573    -8.541252    30.496449    14.925695    14.681889    -31.791872    -9.116954    5.033354    20.951624    -8.492999    -1.729645    20.420696    -10.550273    1.465893    -16.492571    3.117138    4.820526    -88.359039    14.136110    -3.713870    -30.570360    118.085358    7.913293    -1.038361    18.128422    3.187356    20.139067    20.569809    23.219870    61.189510    -37.748386    -12.559555    33.592438    -149.019836    39.062428    -18.986507    3.971851    26.757744    7.858686    -7.699463    16.952614    9.620564    -10.095725    -21.680405    39.117477    20.590633    -24.776205    20.666311    -6.482984    33.908062    7.865406    5.734932    -4.965877    -6.405423    
